<svg width="18" height="16" viewBox="0 0 18 16" fill="none" xmlns="http://www.w3.org/2000/svg">
<path d="M0.601562 0.613647V14.2422C3.98047 14.2812 6.36328 14.8203 8.64844 15.3867V3.52341C6.87891 2.34763 5.11719 1.22849 0.601562 0.613647ZM17.3984 0.613647C12.8828 1.22849 11.1211 2.34763 9.35156 3.52341V15.3867C11.6367 14.8203 14.0195 14.2812 17.3984 14.2422V0.613647ZM16.582 1.65271L16.6133 4.26951C14.293 4.95701 12.1406 5.74998 10.0156 6.45701C10 5.6406 9.98828 4.8281 9.97266 4.01169C12.0352 2.87107 14.3164 2.13279 16.582 1.65271ZM1.6957 2.11326C4.07031 2.66404 6.19141 3.31248 7.83203 3.86326L7.83984 4.60544C6.21484 4.06248 3.88281 3.34373 1.53711 2.79685L1.6957 2.11326ZM1.70039 3.93357L3.10547 4.18748L2.98047 4.88279L1.57539 4.62888L1.70039 3.93357ZM3.81641 4.37498L5.08594 4.61716L4.95312 5.30466L3.68359 5.06248L3.81641 4.37498ZM5.89453 4.78513L7.83203 5.16013L7.69922 5.84763L5.76172 5.47263L5.89453 4.78513ZM16.1719 5.56248L16.375 6.23435L14.1875 6.89451L13.9844 6.22263L16.1719 5.56248ZM1.41875 5.74607C3.65625 6.00779 5.875 6.28904 7.74219 6.78904L7.5625 7.46873C5.76562 6.98435 3.57031 6.7031 1.33672 6.44138L1.41875 5.74607ZM12.9492 6.43748L13.1367 7.11716L10.3359 7.8906L10.1484 7.21091L12.9492 6.43748ZM16.3242 7.25779L16.5117 7.93748L15.2305 8.29294L15.043 7.61326L16.3242 7.25779ZM1.54687 7.32029L3.49609 7.52341L3.41797 8.22654L1.47266 8.0156L1.54687 7.32029ZM4.55078 7.7031L7.75781 8.18357L7.65625 8.87888L4.44922 8.39841L4.55078 7.7031ZM14.2578 7.84763L14.4453 8.52732L10.2695 9.67966L10.082 8.99998L14.2578 7.84763ZM16.4375 8.74216L16.6172 9.42185L12.6133 10.4609L12.4336 9.78123L16.4375 8.74216ZM1.27891 8.99216C2.44453 9.11326 3.69922 9.28513 4.57812 9.49998V13.8359L1.3125 13.5469C1.29961 12.0273 1.29375 10.5117 1.27891 8.99216ZM5.36328 9.56638L7.76562 9.85935L7.67969 10.5547L5.27734 10.2617L5.36328 9.56638ZM11.6719 10.0273L11.8359 10.7109L10.3594 11.0664L10.1953 10.3828L11.6719 10.0273ZM16.7148 10.1875L16.7305 13.3984L13.6641 13.7969C13.6523 12.8672 13.6484 11.9336 13.6367 11.0039L16.7148 10.1875ZM5.40625 11.0625L7.74219 11.4453L7.625 12.1406L5.28906 11.7578L5.40625 11.0625ZM16.0195 11.1015L14.3477 11.5429L14.3594 13L16.0273 12.7812L16.0195 11.1015ZM12.8398 11.4844L12.9727 12.1719L10.2812 12.6836L10.1484 11.9961L12.8398 11.4844ZM5.375 12.6211L7.82031 13.1054L7.6875 13.7929L5.24219 13.3086L5.375 12.6211ZM12.6641 12.8867L12.8203 13.5742L10.3789 14.1172L10.2227 13.4297L12.6641 12.8867Z" fill="#FFD32A"/>
</svg>
