<svg width="24" height="24" viewBox="0 0 24 24" fill="none" xmlns="http://www.w3.org/2000/svg">
<path d="M22 6C22 4.9 21.1 4 20 4H5C4.45 4 4 4.45 4 5C4 5.55 4.45 6 5 6H20V8.59C20.73 8.88 21.4 9.28 22 9.76V6ZM8 9H3C2.5 9 2 9.5 2 10V19C2 19.5 2.5 20 3 20H8C8.5 20 9 19.5 9 19V10C9 9.5 8.5 9 8 9ZM7 18H4V11H7V18ZM17.75 16.97C18.05 16.74 18.25 16.4 18.25 16C18.25 15.6685 18.1183 15.3505 17.8839 15.1161C17.6495 14.8817 17.3315 14.75 17 14.75C16.6685 14.75 16.3505 14.8817 16.1161 15.1161C15.8817 15.3505 15.75 15.6685 15.75 16C15.75 16.4 15.95 16.75 16.25 16.97V21.25C16.25 21.66 16.59 22 17 22C17.41 22 17.75 21.66 17.75 21.25V16.97Z" fill="#FFD32A"/>
<path d="M17.54 13.56C18.52 13.77 19.3 14.59 19.47 15.58C19.58 16.22 19.44 16.83 19.13 17.32C19.0429 17.4625 19.0072 17.6306 19.0291 17.7962C19.0509 17.9618 19.1289 18.1149 19.25 18.23C19.59 18.56 20.15 18.52 20.41 18.11C20.92 17.29 21.14 16.28 20.94 15.21C20.64 13.65 19.38 12.38 17.82 12.08C17.2376 11.9598 16.6357 11.9708 16.058 12.112C15.4803 12.2531 14.9412 12.5211 14.4799 12.8963C14.0185 13.2715 13.6463 13.7447 13.3904 14.2815C13.1344 14.8183 13.0011 15.4053 13 16C13 16.78 13.22 17.5 13.6 18.11C13.85 18.52 14.43 18.57 14.76 18.23C15 17.99 15.05 17.6 14.87 17.31C14.6249 16.9173 14.4966 16.4629 14.5 16C14.5 14.45 15.93 13.22 17.54 13.56Z" fill="#FFD32A"/>
<path d="M16.25 9.53999C13.31 9.86999 10.93 12.22 10.56 15.15C10.33 16.97 10.85 18.66 11.86 19.97C12.13 20.32 12.66 20.34 12.98 20.03C13.25 19.76 13.26 19.33 13.03 19.03C12.6121 18.4821 12.312 17.8537 12.1486 17.1842C11.9851 16.5148 11.9617 15.8189 12.08 15.14C12.253 14.1404 12.7267 13.2173 13.4377 12.4937C14.1488 11.7701 15.0635 11.2805 16.06 11.09C19.22 10.5 22 12.93 22 16C22 17.13 21.62 18.18 20.98 19.02C20.75 19.32 20.77 19.75 21.04 20.02C21.35 20.33 21.88 20.32 22.15 19.96C23.0295 18.8278 23.5048 17.4337 23.5 16C23.5 12.16 20.17 9.09999 16.25 9.53999Z" fill="#FFD32A"/>
</svg>
