<svg width="18" height="18" viewBox="0 0 18 18" fill="none" xmlns="http://www.w3.org/2000/svg">
<path fill-rule="evenodd" clip-rule="evenodd" d="M3 4.5C3 3.90905 3.1164 3.32389 3.34254 2.77792C3.56869 2.23196 3.90016 1.73588 4.31802 1.31802C4.73588 0.900156 5.23196 0.568688 5.77792 0.342542C6.32389 0.116396 6.90905 0 7.5 0C8.09095 0 8.67611 0.116396 9.22208 0.342542C9.76804 0.568688 10.2641 0.900156 10.682 1.31802C11.0998 1.73588 11.4313 2.23196 11.6575 2.77792C11.8836 3.32389 12 3.90905 12 4.5C12 5.69347 11.5259 6.83807 10.682 7.68198C9.83807 8.52589 8.69347 9 7.5 9C6.30653 9 5.16193 8.52589 4.31802 7.68198C3.47411 6.83807 3 5.69347 3 4.5ZM18 3H13.5V1.5H18V3ZM18 6H13.5V4.5H18V6ZM18 9H13.5V7.5H18V9ZM0 18V17.25C0 15.4598 0.711159 13.7429 1.97703 12.477C3.2429 11.2112 4.95979 10.5 6.75 10.5H8.25C10.0402 10.5 11.7571 11.2112 13.023 12.477C14.2888 13.7429 15 15.4598 15 17.25V18H0Z" fill="#FFD32A"/>
</svg>
