<svg width="20" height="19" viewBox="0 0 20 19" fill="none" xmlns="http://www.w3.org/2000/svg">
<path d="M18 10H14C14 11.1 13.1 12 12 12H8C6.9 12 6 11.1 6 10H2L0 15V17C0 18.1 0.9 19 2 19H18C19.1 19 20 18.1 20 17V15M4 17C3.11 17 2.66 15.92 3.29 15.29C3.92 14.66 5 15.11 5 16C5 16.55 4.55 17 4 17ZM8 17C7.11 17 6.66 15.92 7.29 15.29C7.92 14.66 9 15.11 9 16C9 16.55 8.55 17 8 17ZM12 17C11.11 17 10.66 15.92 11.29 15.29C11.92 14.66 13 15.11 13 16C13 16.55 12.55 17 12 17ZM16 17C15.11 17 14.66 15.92 15.29 15.29C15.92 14.66 17 15.11 17 16C17 16.55 16.55 17 16 17ZM16 7V0H4V7H1V9H19V7M6 2H14V3H6M6 4H12V5H6" fill="#FFCD29"/>
</svg>
