<svg width="19" height="22" viewBox="0 0 19 22" fill="none" xmlns="http://www.w3.org/2000/svg">
<path d="M5.66665 14H16.3333V11.3333H5.66665V14ZM5.66665 8.66666H16.3333V5.99999H5.66665V8.66666ZM21.6 25.3L16.2 18.2667C15.8222 17.7555 15.3555 17.3613 14.8 17.084C14.2444 16.8067 13.6444 16.6675 13 16.6667H0.333313V3.33332C0.333313 2.59999 0.594646 1.97243 1.11731 1.45066C1.63998 0.928879 2.26754 0.667545 2.99998 0.666656H19C19.7333 0.666656 20.3613 0.92799 20.884 1.45066C21.4066 1.97332 21.6675 2.60088 21.6666 3.33332V24.6667C21.6666 24.7778 21.6613 24.8835 21.6506 24.984C21.64 25.0844 21.6231 25.1898 21.6 25.3ZM2.99998 27.3333C2.26665 27.3333 1.63909 27.0724 1.11731 26.5507C0.595535 26.0289 0.334202 25.4009 0.333313 24.6667V19.3333H13C13.2222 19.3333 13.428 19.3835 13.6173 19.484C13.8066 19.5844 13.9675 19.7231 14.1 19.9L19.7 27.2333C19.5889 27.2778 19.4724 27.3058 19.3506 27.3173C19.2289 27.3289 19.112 27.3342 19 27.3333H2.99998Z" fill="#FFCD29"/>
</svg>
