<svg width="24" height="24" viewBox="0 0 24 24" fill="none" xmlns="http://www.w3.org/2000/svg">
<path d="M15.7542 5.41057C13.8249 4.29832 13.8249 1.5026 15.7542 0.390352C17.6834 -0.721898 20.1081 0.675962 20.1081 2.90046C20.1081 5.12496 17.6834 6.52277 15.7542 5.41057ZM12.9271 1.64731H0.00158691V2.45121H12.9271V1.64731ZM5.83377 4.81563H0.00158691V5.52499H5.83382L5.83377 4.81563ZM6.3067 13.0438H0.00158691V13.8004H6.30674L6.3067 13.0438ZM4.32056 15.9284H0.00158691V16.685H4.3206L4.32056 15.9284ZM3.55293 23.6402C4.18204 22.7561 9.28279 15.3767 10.0075 15.1996C10.7422 15.4027 12.2427 15.8446 12.1235 16.0609C11.972 16.3361 10.4816 18.2955 10.3774 18.8167C10.2731 19.338 11.055 20.7714 12.2773 19.8809C13.4995 18.9905 16.1679 15.6633 15.8812 14.8815C15.5945 14.0996 13.8943 12.9686 11.9932 12.1971C11.9411 12.0668 13.3745 10.6595 14.1302 9.35646C14.2717 9.11262 16.8667 12.4578 17.7006 12.3014C18.9651 12.0643 22.9439 8.7049 23.1784 8.05338C23.4129 7.40187 23.1475 6.64606 22.2782 6.04971C21.409 5.45337 19.2122 9.14796 17.857 8.99159C16.9509 8.88706 16.3566 6.72485 14.2084 5.3951C12.3239 4.22852 9.39557 3.80407 8.67904 3.89351C7.87068 3.99443 5.92092 5.8121 3.26263 8.62671C2.39882 9.54129 4.25699 11.1993 5.03479 10.6334C7.38862 8.92099 8.85243 6.79268 9.39173 6.81195C9.93102 6.83116 11.2133 7.53921 11.2133 7.53921C11.2133 7.53921 2.47556 19.8547 1.54251 21.7096C0.520634 23.7414 2.92382 24.5242 3.55293 23.6402Z" fill="#FFD32A"/>
</svg>
